<?xml version="1.0" encoding="utf-8"?>
<!-- Generator: Adobe Illustrator 26.3.1, SVG Export Plug-In . SVG Version: 6.00 Build 0)  -->
<svg version="1.2" baseProfile="tiny" id="g-new-delivery-map-Artboard_1-interactions-img" xmlns="http://www.w3.org/2000/svg" xmlns:xlink="http://www.w3.org/1999/xlink"
	 x="0px" y="0px" viewBox="0 0 1000 600" overflow="visible" xml:space="preserve">
<g>
	
		<path id="routeOne_00000062890417873629448630000007828646211599743361_" fill="none" stroke="#18A1CD" stroke-width="2" stroke-linecap="round" stroke-linejoin="round" stroke-dasharray="2,2" d="
		M387.964,254.143l12.329,58.963l-2.531,21.806l55.193-13.469l1.198,3.392l-20.012,44.456L481,360.007"/>
	
		<path id="routeTwo_00000018953649546431493350000012620805739349916317_" fill="none" stroke="#18A1CD" stroke-width="2" stroke-linecap="round" stroke-linejoin="round" stroke-dasharray="2,2" d="
		M481.032,360.448l77.922-65.908l-2.852-17.232l31.655-17.165"/>
	
		<path id="routeThree_00000127733096296273409500000002349917055185929128_" fill="none" stroke="#18A1CD" stroke-width="2" stroke-linecap="round" stroke-linejoin="round" stroke-dasharray="2,2" d="
		M587.757,260.143l97.697,31.275"/>
	
		<path id="routeFour_00000141415546318117955580000011076447807544391598_" fill="none" stroke="#18A1CD" stroke-width="2" stroke-linecap="round" stroke-linejoin="round" stroke-dasharray="2,2" d="
		M685.454,291.418l43.247-60.643"/>
	
		<path id="routeFive_00000088811472896658005350000003867167591232209073_" fill="none" stroke="#18A1CD" stroke-width="2" stroke-linecap="round" stroke-linejoin="round" stroke-dasharray="2,2" d="
		M728.701,230.774l-110.386-40.019l-1.991,3.983l42.116-24.136"/>
	
		<path id="routeSix_00000010306881550840904550000016196216156768598702_" fill="none" stroke="#18A1CD" stroke-width="2" stroke-linecap="round" stroke-linejoin="round" stroke-dasharray="2,2" d="
		M658.44,170.603l-212.538-50.011"/>
	
		<path id="routeSeven_00000183245878484346679060000003794463181982588084_" fill="none" stroke="#18A1CD" stroke-width="2" stroke-linecap="round" stroke-linejoin="round" stroke-dasharray="2,2" d="
		M445.902,120.592l-89.024,89.304l-28.719,44.288l-0.489,20.136l5.349,2.295l0,0"/>
	<g id="markersLayer_00000097481044389392135570000010495015448001998475_">
		<g id="airport_00000129917250266825784060000015752075550992839606_">
			<path fill="#15607A" d="M786.293,252.4l2.48-8h-3.6l-2.24,2h-2l1.6-3.4l-1.6-3.4h2l2.24,2h3.6l-2.48-8h2l4.48,8h5.48
				c0,0,0.24,0.027,0.72,0.08c0.48,0.053,0.787,0.127,0.92,0.22c0.133,0.093,0.373,0.233,0.72,0.42
				c0.347,0.187,0.453,0.413,0.32,0.68c0,0.427-0.253,0.753-0.76,0.98s-1,0.353-1.48,0.38l-0.76,0.04h-5.16l-4.48,8H786.293z"/>
			<g display="none">
				<text transform="matrix(1 0 0 1 750.5273 211.6094)" display="inline" font-family="'ArialMT'" font-size="8px">S</text>
				<text transform="matrix(1 0 0 1 758.8633 211.6094)" display="inline" font-family="'ArialMT'" font-size="8px">i</text>
				<text transform="matrix(1 0 0 1 763.6406 211.6094)" display="inline" font-family="'ArialMT'" font-size="8px">n</text>
				<text transform="matrix(1 0 0 1 771.0898 211.6094)" display="inline" font-family="'ArialMT'" font-size="8px">g</text>
				<text transform="matrix(1 0 0 1 778.5391 211.6094)" display="inline" font-family="'ArialMT'" font-size="8px">a</text>
				<text transform="matrix(1 0 0 1 785.9883 211.6094)" display="inline" font-family="'ArialMT'" font-size="8px">p</text>
				<text transform="matrix(1 0 0 1 793.4375 211.6094)" display="inline" font-family="'ArialMT'" font-size="8px">o</text>
				<text transform="matrix(1 0 0 1 800.8867 211.6094)" display="inline" font-family="'ArialMT'" font-size="8px">r</text>
				<text transform="matrix(1 0 0 1 806.5508 211.6094)" display="inline" font-family="'ArialMT'" font-size="8px">e</text>
			</g>
			<g display="none">
				
					<text transform="matrix(1 0 0 1 750.5273 211.6094)" display="inline" fill="none" stroke="#F2F3F0" stroke-width="2" stroke-linecap="round" stroke-linejoin="round" font-family="'ArialMT'" font-size="8px">S</text>
				
					<text transform="matrix(1 0 0 1 758.8633 211.6094)" display="inline" fill="none" stroke="#F2F3F0" stroke-width="2" stroke-linecap="round" stroke-linejoin="round" font-family="'ArialMT'" font-size="8px">i</text>
				
					<text transform="matrix(1 0 0 1 763.6406 211.6094)" display="inline" fill="none" stroke="#F2F3F0" stroke-width="2" stroke-linecap="round" stroke-linejoin="round" font-family="'ArialMT'" font-size="8px">n</text>
				
					<text transform="matrix(1 0 0 1 771.0898 211.6094)" display="inline" fill="none" stroke="#F2F3F0" stroke-width="2" stroke-linecap="round" stroke-linejoin="round" font-family="'ArialMT'" font-size="8px">g</text>
				
					<text transform="matrix(1 0 0 1 778.5391 211.6094)" display="inline" fill="none" stroke="#F2F3F0" stroke-width="2" stroke-linecap="round" stroke-linejoin="round" font-family="'ArialMT'" font-size="8px">a</text>
				
					<text transform="matrix(1 0 0 1 785.9883 211.6094)" display="inline" fill="none" stroke="#F2F3F0" stroke-width="2" stroke-linecap="round" stroke-linejoin="round" font-family="'ArialMT'" font-size="8px">p</text>
				
					<text transform="matrix(1 0 0 1 793.4375 211.6094)" display="inline" fill="none" stroke="#F2F3F0" stroke-width="2" stroke-linecap="round" stroke-linejoin="round" font-family="'ArialMT'" font-size="8px">o</text>
				
					<text transform="matrix(1 0 0 1 800.8867 211.6094)" display="inline" fill="none" stroke="#F2F3F0" stroke-width="2" stroke-linecap="round" stroke-linejoin="round" font-family="'ArialMT'" font-size="8px">r</text>
				
					<text transform="matrix(1 0 0 1 806.5508 211.6094)" display="inline" fill="none" stroke="#F2F3F0" stroke-width="2" stroke-linecap="round" stroke-linejoin="round" font-family="'ArialMT'" font-size="8px">e</text>
			</g>
			<g display="none">
				<text transform="matrix(1 0 0 1 770.6484 221.2031)" display="inline" font-family="'ArialMT'" font-size="8px">C</text>
				<text transform="matrix(1 0 0 1 779.4258 221.2031)" display="inline" font-family="'ArialMT'" font-size="8px">h</text>
				<text transform="matrix(1 0 0 1 786.875 221.2031)" display="inline" font-family="'ArialMT'" font-size="8px">a</text>
				<text transform="matrix(1 0 0 1 794.3242 221.2031)" display="inline" font-family="'ArialMT'" font-size="8px">n</text>
				<text transform="matrix(1 0 0 1 801.7734 221.2031)" display="inline" font-family="'ArialMT'" font-size="8px">g</text>
				<text transform="matrix(1 0 0 1 809.2227 221.2031)" display="inline" font-family="'ArialMT'" font-size="8px">i</text>
			</g>
			<g display="none">
				
					<text transform="matrix(1 0 0 1 770.6484 221.2031)" display="inline" fill="none" stroke="#F2F3F0" stroke-width="2" stroke-linecap="round" stroke-linejoin="round" font-family="'ArialMT'" font-size="8px">C</text>
				
					<text transform="matrix(1 0 0 1 779.4258 221.2031)" display="inline" fill="none" stroke="#F2F3F0" stroke-width="2" stroke-linecap="round" stroke-linejoin="round" font-family="'ArialMT'" font-size="8px">h</text>
				
					<text transform="matrix(1 0 0 1 786.875 221.2031)" display="inline" fill="none" stroke="#F2F3F0" stroke-width="2" stroke-linecap="round" stroke-linejoin="round" font-family="'ArialMT'" font-size="8px">a</text>
				
					<text transform="matrix(1 0 0 1 794.3242 221.2031)" display="inline" fill="none" stroke="#F2F3F0" stroke-width="2" stroke-linecap="round" stroke-linejoin="round" font-family="'ArialMT'" font-size="8px">n</text>
				
					<text transform="matrix(1 0 0 1 801.7734 221.2031)" display="inline" fill="none" stroke="#F2F3F0" stroke-width="2" stroke-linecap="round" stroke-linejoin="round" font-family="'ArialMT'" font-size="8px">g</text>
				
					<text transform="matrix(1 0 0 1 809.2227 221.2031)" display="inline" fill="none" stroke="#F2F3F0" stroke-width="2" stroke-linecap="round" stroke-linejoin="round" font-family="'ArialMT'" font-size="8px">i</text>
			</g>
			<g display="none">
				<text transform="matrix(1 0 0 1 769.4375 230.7969)" display="inline" font-family="'ArialMT'" font-size="8px">A</text>
				<text transform="matrix(1 0 0 1 777.7734 230.7969)" display="inline" font-family="'ArialMT'" font-size="8px">i</text>
				<text transform="matrix(1 0 0 1 782.5508 230.7969)" display="inline" font-family="'ArialMT'" font-size="8px">r</text>
				<text transform="matrix(1 0 0 1 788.2148 230.7969)" display="inline" font-family="'ArialMT'" font-size="8px">p</text>
				<text transform="matrix(1 0 0 1 795.6641 230.7969)" display="inline" font-family="'ArialMT'" font-size="8px">o</text>
				<text transform="matrix(1 0 0 1 803.1133 230.7969)" display="inline" font-family="'ArialMT'" font-size="8px">r</text>
				<text transform="matrix(1 0 0 1 808.7773 230.7969)" display="inline" font-family="'ArialMT'" font-size="8px">t</text>
			</g>
			<g display="none">
				
					<text transform="matrix(1 0 0 1 769.4375 230.7969)" display="inline" fill="none" stroke="#F2F3F0" stroke-width="2" stroke-linecap="round" stroke-linejoin="round" font-family="'ArialMT'" font-size="8px">A</text>
				
					<text transform="matrix(1 0 0 1 777.7734 230.7969)" display="inline" fill="none" stroke="#F2F3F0" stroke-width="2" stroke-linecap="round" stroke-linejoin="round" font-family="'ArialMT'" font-size="8px">i</text>
				
					<text transform="matrix(1 0 0 1 782.5508 230.7969)" display="inline" fill="none" stroke="#F2F3F0" stroke-width="2" stroke-linecap="round" stroke-linejoin="round" font-family="'ArialMT'" font-size="8px">r</text>
				
					<text transform="matrix(1 0 0 1 788.2148 230.7969)" display="inline" fill="none" stroke="#F2F3F0" stroke-width="2" stroke-linecap="round" stroke-linejoin="round" font-family="'ArialMT'" font-size="8px">p</text>
				
					<text transform="matrix(1 0 0 1 795.6641 230.7969)" display="inline" fill="none" stroke="#F2F3F0" stroke-width="2" stroke-linecap="round" stroke-linejoin="round" font-family="'ArialMT'" font-size="8px">o</text>
				
					<text transform="matrix(1 0 0 1 803.1133 230.7969)" display="inline" fill="none" stroke="#F2F3F0" stroke-width="2" stroke-linecap="round" stroke-linejoin="round" font-family="'ArialMT'" font-size="8px">r</text>
				
					<text transform="matrix(1 0 0 1 808.7773 230.7969)" display="inline" fill="none" stroke="#F2F3F0" stroke-width="2" stroke-linecap="round" stroke-linejoin="round" font-family="'ArialMT'" font-size="8px">t</text>
			</g>
			<g display="none">
				<text transform="matrix(1 0 0 1 750.5273 211.6094)" display="inline" fill="#15607A" font-family="'ArialMT'" font-size="8px">S</text>
				<text transform="matrix(1 0 0 1 758.8633 211.6094)" display="inline" fill="#15607A" font-family="'ArialMT'" font-size="8px">i</text>
				<text transform="matrix(1 0 0 1 763.6406 211.6094)" display="inline" fill="#15607A" font-family="'ArialMT'" font-size="8px">n</text>
				<text transform="matrix(1 0 0 1 771.0898 211.6094)" display="inline" fill="#15607A" font-family="'ArialMT'" font-size="8px">g</text>
				<text transform="matrix(1 0 0 1 778.5391 211.6094)" display="inline" fill="#15607A" font-family="'ArialMT'" font-size="8px">a</text>
				<text transform="matrix(1 0 0 1 785.9883 211.6094)" display="inline" fill="#15607A" font-family="'ArialMT'" font-size="8px">p</text>
				<text transform="matrix(1 0 0 1 793.4375 211.6094)" display="inline" fill="#15607A" font-family="'ArialMT'" font-size="8px">o</text>
				<text transform="matrix(1 0 0 1 800.8867 211.6094)" display="inline" fill="#15607A" font-family="'ArialMT'" font-size="8px">r</text>
				<text transform="matrix(1 0 0 1 806.5508 211.6094)" display="inline" fill="#15607A" font-family="'ArialMT'" font-size="8px">e</text>
			</g>
			<g display="none">
				<text transform="matrix(1 0 0 1 770.6484 221.2031)" display="inline" fill="#15607A" font-family="'ArialMT'" font-size="8px">C</text>
				<text transform="matrix(1 0 0 1 779.4258 221.2031)" display="inline" fill="#15607A" font-family="'ArialMT'" font-size="8px">h</text>
				<text transform="matrix(1 0 0 1 786.875 221.2031)" display="inline" fill="#15607A" font-family="'ArialMT'" font-size="8px">a</text>
				<text transform="matrix(1 0 0 1 794.3242 221.2031)" display="inline" fill="#15607A" font-family="'ArialMT'" font-size="8px">n</text>
				<text transform="matrix(1 0 0 1 801.7734 221.2031)" display="inline" fill="#15607A" font-family="'ArialMT'" font-size="8px">g</text>
				<text transform="matrix(1 0 0 1 809.2227 221.2031)" display="inline" fill="#15607A" font-family="'ArialMT'" font-size="8px">i</text>
			</g>
			<g display="none">
				<text transform="matrix(1 0 0 1 769.4375 230.7969)" display="inline" fill="#15607A" font-family="'ArialMT'" font-size="8px">A</text>
				<text transform="matrix(1 0 0 1 777.7734 230.7969)" display="inline" fill="#15607A" font-family="'ArialMT'" font-size="8px">i</text>
				<text transform="matrix(1 0 0 1 782.5508 230.7969)" display="inline" fill="#15607A" font-family="'ArialMT'" font-size="8px">r</text>
				<text transform="matrix(1 0 0 1 788.2148 230.7969)" display="inline" fill="#15607A" font-family="'ArialMT'" font-size="8px">p</text>
				<text transform="matrix(1 0 0 1 795.6641 230.7969)" display="inline" fill="#15607A" font-family="'ArialMT'" font-size="8px">o</text>
				<text transform="matrix(1 0 0 1 803.1133 230.7969)" display="inline" fill="#15607A" font-family="'ArialMT'" font-size="8px">r</text>
				<text transform="matrix(1 0 0 1 808.7773 230.7969)" display="inline" fill="#15607A" font-family="'ArialMT'" font-size="8px">t</text>
			</g>
		</g>
		<g id="hawpar_00000021095402145146307730000003411667781565480356_">
			<path fill="#15607A" d="M418,361l-6.5,5h13L418,361z M412.5,367c-0.56,0-0.92,0.46-1,1v7l-1.74,3c-0.16,0.26-0.26,0.36-0.26,0.5
				c0,0.5,0.64,0.5,1,0.5h15c0.36,0,1,0,1-0.5c0-0.14-0.08-0.22-0.24-0.5l-1.76-3v-7c0-0.56-0.44-1-1-1H412.5z M414.5,369
				c0.5,0,1,0,1.5,0s1,1,1,1l1,2.5l1-2.5c0.22-0.56,0.5-1,1-1s1,0,1.5,0c0.56,0,1,0.44,1,1v5c0,0.5-0.5,1-1,1s-1-0.5-1-1v-4l-1.5,3
				c0,0-0.5,1-1,1s-1-1-1-1l-1.5-3v4c0,0.5-0.5,1-1,1s-1-0.5-1-1v-5C413.5,369.44,413.94,369,414.5,369z"/>
			<g display="none">
				<text transform="matrix(1 0 0 1 374.5723 393)" display="inline" font-family="'ArialMT'" font-size="8px">H</text>
				<text transform="matrix(1 0 0 1 383.3496 393)" display="inline" font-family="'ArialMT'" font-size="8px">a</text>
				<text transform="matrix(1 0 0 1 390.7988 393)" display="inline" font-family="'ArialMT'" font-size="8px">w</text>
				<text transform="matrix(1 0 0 1 399.5762 393)" display="inline" font-family="'ArialMT'" font-size="8px"> </text>
				<text transform="matrix(1 0 0 1 404.7988 393)" display="inline" font-family="'ArialMT'" font-size="8px">P</text>
				<text transform="matrix(1 0 0 1 413.1348 393)" display="inline" font-family="'ArialMT'" font-size="8px">a</text>
				<text transform="matrix(1 0 0 1 420.584 393)" display="inline" font-family="'ArialMT'" font-size="8px">r</text>
				<text transform="matrix(1 0 0 1 426.248 393)" display="inline" font-family="'ArialMT'" font-size="8px"> </text>
				<text transform="matrix(1 0 0 1 431.4707 393)" display="inline" font-family="'ArialMT'" font-size="8px">V</text>
				<text transform="matrix(1 0 0 1 439.6621 393)" display="inline" font-family="'ArialMT'" font-size="8px">i</text>
				<text transform="matrix(1 0 0 1 444.4395 393)" display="inline" font-family="'ArialMT'" font-size="8px">l</text>
				<text transform="matrix(1 0 0 1 449.2168 393)" display="inline" font-family="'ArialMT'" font-size="8px">l</text>
				<text transform="matrix(1 0 0 1 453.9941 393)" display="inline" font-family="'ArialMT'" font-size="8px">a</text>
			</g>
			<g display="none">
				
					<text transform="matrix(1 0 0 1 374.5723 393)" display="inline" fill="none" stroke="#F2F3F0" stroke-width="2" stroke-linecap="round" stroke-linejoin="round" font-family="'ArialMT'" font-size="8px">H</text>
				
					<text transform="matrix(1 0 0 1 383.3496 393)" display="inline" fill="none" stroke="#F2F3F0" stroke-width="2" stroke-linecap="round" stroke-linejoin="round" font-family="'ArialMT'" font-size="8px">a</text>
				
					<text transform="matrix(1 0 0 1 390.7988 393)" display="inline" fill="none" stroke="#F2F3F0" stroke-width="2" stroke-linecap="round" stroke-linejoin="round" font-family="'ArialMT'" font-size="8px">w</text>
				
					<text transform="matrix(1 0 0 1 399.5762 393)" display="inline" fill="none" stroke="#F2F3F0" stroke-width="2" stroke-linecap="round" stroke-linejoin="round" font-family="'ArialMT'" font-size="8px"> </text>
				
					<text transform="matrix(1 0 0 1 404.7988 393)" display="inline" fill="none" stroke="#F2F3F0" stroke-width="2" stroke-linecap="round" stroke-linejoin="round" font-family="'ArialMT'" font-size="8px">P</text>
				
					<text transform="matrix(1 0 0 1 413.1348 393)" display="inline" fill="none" stroke="#F2F3F0" stroke-width="2" stroke-linecap="round" stroke-linejoin="round" font-family="'ArialMT'" font-size="8px">a</text>
				
					<text transform="matrix(1 0 0 1 420.584 393)" display="inline" fill="none" stroke="#F2F3F0" stroke-width="2" stroke-linecap="round" stroke-linejoin="round" font-family="'ArialMT'" font-size="8px">r</text>
				
					<text transform="matrix(1 0 0 1 426.248 393)" display="inline" fill="none" stroke="#F2F3F0" stroke-width="2" stroke-linecap="round" stroke-linejoin="round" font-family="'ArialMT'" font-size="8px"> </text>
				
					<text transform="matrix(1 0 0 1 431.4707 393)" display="inline" fill="none" stroke="#F2F3F0" stroke-width="2" stroke-linecap="round" stroke-linejoin="round" font-family="'ArialMT'" font-size="8px">V</text>
				
					<text transform="matrix(1 0 0 1 439.6621 393)" display="inline" fill="none" stroke="#F2F3F0" stroke-width="2" stroke-linecap="round" stroke-linejoin="round" font-family="'ArialMT'" font-size="8px">i</text>
				
					<text transform="matrix(1 0 0 1 444.4395 393)" display="inline" fill="none" stroke="#F2F3F0" stroke-width="2" stroke-linecap="round" stroke-linejoin="round" font-family="'ArialMT'" font-size="8px">l</text>
				
					<text transform="matrix(1 0 0 1 449.2168 393)" display="inline" fill="none" stroke="#F2F3F0" stroke-width="2" stroke-linecap="round" stroke-linejoin="round" font-family="'ArialMT'" font-size="8px">l</text>
				
					<text transform="matrix(1 0 0 1 453.9941 393)" display="inline" fill="none" stroke="#F2F3F0" stroke-width="2" stroke-linecap="round" stroke-linejoin="round" font-family="'ArialMT'" font-size="8px">a</text>
			</g>
			<g display="none">
				<text transform="matrix(1 0 0 1 374.5723 393)" display="inline" fill="#1D81A2" font-family="'ArialMT'" font-size="8px">H</text>
				<text transform="matrix(1 0 0 1 383.3496 393)" display="inline" fill="#1D81A2" font-family="'ArialMT'" font-size="8px">a</text>
				<text transform="matrix(1 0 0 1 390.7988 393)" display="inline" fill="#1D81A2" font-family="'ArialMT'" font-size="8px">w</text>
				<text transform="matrix(1 0 0 1 399.5762 393)" display="inline" fill="#1D81A2" font-family="'ArialMT'" font-size="8px"> </text>
				<text transform="matrix(1 0 0 1 404.7988 393)" display="inline" fill="#1D81A2" font-family="'ArialMT'" font-size="8px">P</text>
				<text transform="matrix(1 0 0 1 413.1348 393)" display="inline" fill="#1D81A2" font-family="'ArialMT'" font-size="8px">a</text>
				<text transform="matrix(1 0 0 1 420.584 393)" display="inline" fill="#1D81A2" font-family="'ArialMT'" font-size="8px">r</text>
				<text transform="matrix(1 0 0 1 426.248 393)" display="inline" fill="#1D81A2" font-family="'ArialMT'" font-size="8px"> </text>
				<text transform="matrix(1 0 0 1 431.4707 393)" display="inline" fill="#1D81A2" font-family="'ArialMT'" font-size="8px">V</text>
				<text transform="matrix(1 0 0 1 439.6621 393)" display="inline" fill="#1D81A2" font-family="'ArialMT'" font-size="8px">i</text>
				<text transform="matrix(1 0 0 1 444.4395 393)" display="inline" fill="#1D81A2" font-family="'ArialMT'" font-size="8px">l</text>
				<text transform="matrix(1 0 0 1 449.2168 393)" display="inline" fill="#1D81A2" font-family="'ArialMT'" font-size="8px">l</text>
				<text transform="matrix(1 0 0 1 453.9941 393)" display="inline" fill="#1D81A2" font-family="'ArialMT'" font-size="8px">a</text>
			</g>
		</g>
		<g id="mandai_00000057839768191075337140000011627504403194366607_">
			<path fill="#15607A" d="M447.5,157.5c-2,3-3.78,5-6,7c-2.12,1.9-6,1.26-6,4v1c0,1,1,1.96,1,3v1c0,1.5-0.5,1.5-1,3h1l2-3v3h1v-5
				c0,0,0-1,1-1s1,1,1,1v5h1V172l1,1.5l1,3h1l-1.54-6.28c0.6-0.36,0.54-1.02,0.54-1.72c0-0.94,0-2,0-3l4-5.5l1.44,0.44
				c0.3,0.1,0.56,0.06,0.56-0.2c0-0.5-0.32-0.6-0.5-0.74L447.5,157.5z"/>
			<g display="none">
				<text transform="matrix(1 0 0 1 420.8887 189)" display="inline" font-family="'ArialMT'" font-size="8px">M</text>
				<text transform="matrix(1 0 0 1 430.5527 189)" display="inline" font-family="'ArialMT'" font-size="8px">a</text>
				<text transform="matrix(1 0 0 1 438.002 189)" display="inline" font-family="'ArialMT'" font-size="8px">n</text>
				<text transform="matrix(1 0 0 1 445.4512 189)" display="inline" font-family="'ArialMT'" font-size="8px">d</text>
				<text transform="matrix(1 0 0 1 452.9004 189)" display="inline" font-family="'ArialMT'" font-size="8px">a</text>
				<text transform="matrix(1 0 0 1 460.3496 189)" display="inline" font-family="'ArialMT'" font-size="8px">i</text>
			</g>
			<g display="none">
				
					<text transform="matrix(1 0 0 1 420.8887 189)" display="inline" fill="none" stroke="#F2F3F0" stroke-width="2" stroke-linecap="round" stroke-linejoin="round" font-family="'ArialMT'" font-size="8px">M</text>
				
					<text transform="matrix(1 0 0 1 430.5527 189)" display="inline" fill="none" stroke="#F2F3F0" stroke-width="2" stroke-linecap="round" stroke-linejoin="round" font-family="'ArialMT'" font-size="8px">a</text>
				
					<text transform="matrix(1 0 0 1 438.002 189)" display="inline" fill="none" stroke="#F2F3F0" stroke-width="2" stroke-linecap="round" stroke-linejoin="round" font-family="'ArialMT'" font-size="8px">n</text>
				
					<text transform="matrix(1 0 0 1 445.4512 189)" display="inline" fill="none" stroke="#F2F3F0" stroke-width="2" stroke-linecap="round" stroke-linejoin="round" font-family="'ArialMT'" font-size="8px">d</text>
				
					<text transform="matrix(1 0 0 1 452.9004 189)" display="inline" fill="none" stroke="#F2F3F0" stroke-width="2" stroke-linecap="round" stroke-linejoin="round" font-family="'ArialMT'" font-size="8px">a</text>
				
					<text transform="matrix(1 0 0 1 460.3496 189)" display="inline" fill="none" stroke="#F2F3F0" stroke-width="2" stroke-linecap="round" stroke-linejoin="round" font-family="'ArialMT'" font-size="8px">i</text>
			</g>
			<g display="none">
				<text transform="matrix(1 0 0 1 422.002 198.5938)" display="inline" font-family="'ArialMT'" font-size="8px">N</text>
				<text transform="matrix(1 0 0 1 430.7793 198.5938)" display="inline" font-family="'ArialMT'" font-size="8px">a</text>
				<text transform="matrix(1 0 0 1 438.2285 198.5938)" display="inline" font-family="'ArialMT'" font-size="8px">t</text>
				<text transform="matrix(1 0 0 1 443.4512 198.5938)" display="inline" font-family="'ArialMT'" font-size="8px">u</text>
				<text transform="matrix(1 0 0 1 450.9004 198.5938)" display="inline" font-family="'ArialMT'" font-size="8px">r</text>
				<text transform="matrix(1 0 0 1 456.5645 198.5938)" display="inline" font-family="'ArialMT'" font-size="8px">e</text>
			</g>
			<g display="none">
				
					<text transform="matrix(1 0 0 1 422.002 198.5938)" display="inline" fill="none" stroke="#F2F3F0" stroke-width="2" stroke-linecap="round" stroke-linejoin="round" font-family="'ArialMT'" font-size="8px">N</text>
				
					<text transform="matrix(1 0 0 1 430.7793 198.5938)" display="inline" fill="none" stroke="#F2F3F0" stroke-width="2" stroke-linecap="round" stroke-linejoin="round" font-family="'ArialMT'" font-size="8px">a</text>
				
					<text transform="matrix(1 0 0 1 438.2285 198.5938)" display="inline" fill="none" stroke="#F2F3F0" stroke-width="2" stroke-linecap="round" stroke-linejoin="round" font-family="'ArialMT'" font-size="8px">t</text>
				
					<text transform="matrix(1 0 0 1 443.4512 198.5938)" display="inline" fill="none" stroke="#F2F3F0" stroke-width="2" stroke-linecap="round" stroke-linejoin="round" font-family="'ArialMT'" font-size="8px">u</text>
				
					<text transform="matrix(1 0 0 1 450.9004 198.5938)" display="inline" fill="none" stroke="#F2F3F0" stroke-width="2" stroke-linecap="round" stroke-linejoin="round" font-family="'ArialMT'" font-size="8px">r</text>
				
					<text transform="matrix(1 0 0 1 456.5645 198.5938)" display="inline" fill="none" stroke="#F2F3F0" stroke-width="2" stroke-linecap="round" stroke-linejoin="round" font-family="'ArialMT'" font-size="8px">e</text>
			</g>
			<g display="none">
				<text transform="matrix(1 0 0 1 416.5586 208.1875)" display="inline" font-family="'ArialMT'" font-size="8px">P</text>
				<text transform="matrix(1 0 0 1 424.8945 208.1875)" display="inline" font-family="'ArialMT'" font-size="8px">r</text>
				<text transform="matrix(1 0 0 1 430.5586 208.1875)" display="inline" font-family="'ArialMT'" font-size="8px">e</text>
				<text transform="matrix(1 0 0 1 438.0078 208.1875)" display="inline" font-family="'ArialMT'" font-size="8px">c</text>
				<text transform="matrix(1 0 0 1 445.0078 208.1875)" display="inline" font-family="'ArialMT'" font-size="8px">i</text>
				<text transform="matrix(1 0 0 1 449.7852 208.1875)" display="inline" font-family="'ArialMT'" font-size="8px">n</text>
				<text transform="matrix(1 0 0 1 457.2344 208.1875)" display="inline" font-family="'ArialMT'" font-size="8px">c</text>
				<text transform="matrix(1 0 0 1 464.2344 208.1875)" display="inline" font-family="'ArialMT'" font-size="8px">t</text>
			</g>
			<g display="none">
				
					<text transform="matrix(1 0 0 1 416.5586 208.1875)" display="inline" fill="none" stroke="#F2F3F0" stroke-width="2" stroke-linecap="round" stroke-linejoin="round" font-family="'ArialMT'" font-size="8px">P</text>
				
					<text transform="matrix(1 0 0 1 424.8945 208.1875)" display="inline" fill="none" stroke="#F2F3F0" stroke-width="2" stroke-linecap="round" stroke-linejoin="round" font-family="'ArialMT'" font-size="8px">r</text>
				
					<text transform="matrix(1 0 0 1 430.5586 208.1875)" display="inline" fill="none" stroke="#F2F3F0" stroke-width="2" stroke-linecap="round" stroke-linejoin="round" font-family="'ArialMT'" font-size="8px">e</text>
				
					<text transform="matrix(1 0 0 1 438.0078 208.1875)" display="inline" fill="none" stroke="#F2F3F0" stroke-width="2" stroke-linecap="round" stroke-linejoin="round" font-family="'ArialMT'" font-size="8px">c</text>
				
					<text transform="matrix(1 0 0 1 445.0078 208.1875)" display="inline" fill="none" stroke="#F2F3F0" stroke-width="2" stroke-linecap="round" stroke-linejoin="round" font-family="'ArialMT'" font-size="8px">i</text>
				
					<text transform="matrix(1 0 0 1 449.7852 208.1875)" display="inline" fill="none" stroke="#F2F3F0" stroke-width="2" stroke-linecap="round" stroke-linejoin="round" font-family="'ArialMT'" font-size="8px">n</text>
				
					<text transform="matrix(1 0 0 1 457.2344 208.1875)" display="inline" fill="none" stroke="#F2F3F0" stroke-width="2" stroke-linecap="round" stroke-linejoin="round" font-family="'ArialMT'" font-size="8px">c</text>
				
					<text transform="matrix(1 0 0 1 464.2344 208.1875)" display="inline" fill="none" stroke="#F2F3F0" stroke-width="2" stroke-linecap="round" stroke-linejoin="round" font-family="'ArialMT'" font-size="8px">t</text>
			</g>
			<g display="none">
				<text transform="matrix(1 0 0 1 420.8887 189)" display="inline" fill="#1D81A2" font-family="'ArialMT'" font-size="8px">M</text>
				<text transform="matrix(1 0 0 1 430.5527 189)" display="inline" fill="#1D81A2" font-family="'ArialMT'" font-size="8px">a</text>
				<text transform="matrix(1 0 0 1 438.002 189)" display="inline" fill="#1D81A2" font-family="'ArialMT'" font-size="8px">n</text>
				<text transform="matrix(1 0 0 1 445.4512 189)" display="inline" fill="#1D81A2" font-family="'ArialMT'" font-size="8px">d</text>
				<text transform="matrix(1 0 0 1 452.9004 189)" display="inline" fill="#1D81A2" font-family="'ArialMT'" font-size="8px">a</text>
				<text transform="matrix(1 0 0 1 460.3496 189)" display="inline" fill="#1D81A2" font-family="'ArialMT'" font-size="8px">i</text>
			</g>
			<g display="none">
				<text transform="matrix(1 0 0 1 422.002 198.5938)" display="inline" fill="#1D81A2" font-family="'ArialMT'" font-size="8px">N</text>
				<text transform="matrix(1 0 0 1 430.7793 198.5938)" display="inline" fill="#1D81A2" font-family="'ArialMT'" font-size="8px">a</text>
				<text transform="matrix(1 0 0 1 438.2285 198.5938)" display="inline" fill="#1D81A2" font-family="'ArialMT'" font-size="8px">t</text>
				<text transform="matrix(1 0 0 1 443.4512 198.5938)" display="inline" fill="#1D81A2" font-family="'ArialMT'" font-size="8px">u</text>
				<text transform="matrix(1 0 0 1 450.9004 198.5938)" display="inline" fill="#1D81A2" font-family="'ArialMT'" font-size="8px">r</text>
				<text transform="matrix(1 0 0 1 456.5645 198.5938)" display="inline" fill="#1D81A2" font-family="'ArialMT'" font-size="8px">e</text>
			</g>
			<g display="none">
				<text transform="matrix(1 0 0 1 416.5586 208.1875)" display="inline" fill="#1D81A2" font-family="'ArialMT'" font-size="8px">P</text>
				<text transform="matrix(1 0 0 1 424.8945 208.1875)" display="inline" fill="#1D81A2" font-family="'ArialMT'" font-size="8px">r</text>
				<text transform="matrix(1 0 0 1 430.5586 208.1875)" display="inline" fill="#1D81A2" font-family="'ArialMT'" font-size="8px">e</text>
				<text transform="matrix(1 0 0 1 438.0078 208.1875)" display="inline" fill="#1D81A2" font-family="'ArialMT'" font-size="8px">c</text>
				<text transform="matrix(1 0 0 1 445.0078 208.1875)" display="inline" fill="#1D81A2" font-family="'ArialMT'" font-size="8px">i</text>
				<text transform="matrix(1 0 0 1 449.7852 208.1875)" display="inline" fill="#1D81A2" font-family="'ArialMT'" font-size="8px">n</text>
				<text transform="matrix(1 0 0 1 457.2344 208.1875)" display="inline" fill="#1D81A2" font-family="'ArialMT'" font-size="8px">c</text>
				<text transform="matrix(1 0 0 1 464.2344 208.1875)" display="inline" fill="#1D81A2" font-family="'ArialMT'" font-size="8px">t</text>
			</g>
		</g>
		<g id="west_00000055670590862390330460000008190854569310026156_">
			<path fill="#333333" d="M337.641,268.727c0.002,0.676-0.14,1.346-0.416,1.963c-0.728,1.625-4.225,6.318-4.225,6.318
				s-3.484-4.693-4.225-6.318c-0.276-0.617-0.418-1.287-0.416-1.963c-0.022-2.585,2.056-4.697,4.641-4.719c0,0,0,0,0,0
				C335.585,264.029,337.662,266.142,337.641,268.727C337.641,268.726,337.641,268.726,337.641,268.727z"/>
			<path fill="#333333" d="M337.641,268.727c0.002,0.676-0.14,1.346-0.416,1.963c-0.728,1.625-4.225,6.318-4.225,6.318
				s-3.484-4.693-4.225-6.318c-0.276-0.617-0.418-1.287-0.416-1.963c-0.022-2.585,2.056-4.697,4.641-4.719c0,0,0,0,0,0
				C335.585,264.029,337.662,266.142,337.641,268.727C337.641,268.726,337.641,268.726,337.641,268.727z"/>
			<path fill="#333333" d="M331.641,265.727c0.002,0.676-0.14,1.346-0.416,1.963c-0.728,1.625-4.225,6.318-4.225,6.318
				s-3.484-4.693-4.225-6.318c-0.276-0.617-0.418-1.287-0.416-1.963c-0.022-2.585,2.056-4.697,4.641-4.719c0,0,0,0,0,0
				C329.585,261.029,331.662,263.142,331.641,265.727C331.641,265.726,331.641,265.726,331.641,265.727z"/>
			<path fill="#333333" d="M332.641,245.726c0.002,0.676-0.14,1.346-0.416,1.963c-0.728,1.625-4.225,6.318-4.225,6.318
				s-3.484-4.693-4.225-6.318c-0.276-0.617-0.418-1.287-0.416-1.963c-0.022-2.585,2.056-4.697,4.641-4.719c0,0,0,0,0,0
				C330.585,241.029,332.662,243.142,332.641,245.726C332.641,245.726,332.641,245.726,332.641,245.726z"/>
			<path fill="#333333" d="M360.641,201.726c0.002,0.676-0.14,1.346-0.416,1.963c-0.728,1.625-4.225,6.318-4.225,6.318
				s-3.484-4.693-4.225-6.318c-0.276-0.617-0.418-1.287-0.416-1.963c-0.022-2.585,2.056-4.697,4.641-4.719c0,0,0,0,0,0
				C358.585,197.029,360.662,199.142,360.641,201.726C360.641,201.726,360.641,201.726,360.641,201.726z"/>
		</g>
		<path id="north_00000169524860769066068760000007324266892380356768_" fill="#333333" d="M449.641,112.726
			c0.002,0.676-0.14,1.346-0.416,1.963c-0.728,1.625-4.225,6.318-4.225,6.318s-3.484-4.693-4.225-6.318
			c-0.276-0.617-0.418-1.287-0.416-1.963c-0.022-2.585,2.056-4.697,4.641-4.719c0,0,0,0,0,0
			C447.585,108.029,449.662,110.142,449.641,112.726C449.641,112.726,449.641,112.726,449.641,112.726z"/>
		<g id="northeast_00000182502188147932260300000015474110970319652541_">
			<path fill="#333333" d="M662.641,162.726c0.002,0.676-0.14,1.346-0.416,1.963c-0.728,1.625-4.225,6.318-4.225,6.318
				s-3.484-4.693-4.225-6.318c-0.276-0.617-0.418-1.287-0.416-1.963c-0.022-2.585,2.056-4.697,4.641-4.719c0,0,0,0,0,0
				C660.585,158.029,662.662,160.142,662.641,162.726C662.641,162.726,662.641,162.726,662.641,162.726z"/>
			<path fill="#333333" d="M620.641,186.726c0.002,0.676-0.14,1.346-0.416,1.963c-0.728,1.625-4.225,6.318-4.225,6.318
				s-3.484-4.693-4.225-6.318c-0.276-0.617-0.418-1.287-0.416-1.963c-0.022-2.585,2.056-4.697,4.641-4.719c0,0,0,0,0,0
				C618.585,182.029,620.662,184.142,620.641,186.726C620.641,186.726,620.641,186.726,620.641,186.726z"/>
			<path fill="#333333" d="M622.641,182.726c0.002,0.676-0.14,1.346-0.416,1.963c-0.728,1.625-4.225,6.318-4.225,6.318
				s-3.484-4.693-4.225-6.318c-0.276-0.617-0.418-1.287-0.416-1.963c-0.022-2.585,2.056-4.697,4.641-4.719c0,0,0,0,0,0
				C620.585,178.029,622.662,180.142,622.641,182.726C622.641,182.726,622.641,182.726,622.641,182.726z"/>
		</g>
		<path id="repeat4_00000129206771046340572410000001181051227518751152_" fill="#333333" d="M732.641,222.726
			c0.002,0.676-0.14,1.346-0.416,1.963c-0.728,1.625-4.225,6.318-4.225,6.318s-3.484-4.693-4.225-6.318
			c-0.276-0.617-0.418-1.287-0.416-1.963c-0.022-2.585,2.056-4.697,4.641-4.719c0,0,0,0,0,0
			C730.585,218.029,732.662,220.142,732.641,222.726C732.641,222.726,732.641,222.726,732.641,222.726z"/>
		<path id="repeat3_00000036954899022298068640000006034351913609816462_" fill="#333333" d="M689.641,282.727
			c0.002,0.676-0.14,1.346-0.416,1.963c-0.728,1.625-4.225,6.318-4.225,6.318s-3.484-4.693-4.225-6.318
			c-0.276-0.617-0.418-1.287-0.416-1.963c-0.022-2.585,2.056-4.697,4.641-4.719c0,0,0,0,0,0
			C687.585,278.029,689.662,280.142,689.641,282.727C689.641,282.726,689.641,282.726,689.641,282.727z"/>
		<g id="Centre_00000030468536716326387510000014902734122176098733_">
			<path fill="#333333" d="M591.641,251.726c0.002,0.676-0.14,1.346-0.416,1.963c-0.728,1.625-4.225,6.318-4.225,6.318
				s-3.484-4.693-4.225-6.318c-0.276-0.617-0.418-1.287-0.416-1.963c-0.022-2.585,2.056-4.697,4.641-4.719c0,0,0,0,0,0
				C589.585,247.029,591.662,249.142,591.641,251.726C591.641,251.726,591.641,251.726,591.641,251.726z"/>
			<path fill="#333333" d="M560.641,268.727c0.002,0.676-0.14,1.346-0.416,1.963c-0.728,1.625-4.225,6.318-4.225,6.318
				s-3.484-4.693-4.225-6.318c-0.276-0.617-0.418-1.287-0.416-1.963c-0.022-2.585,2.056-4.697,4.641-4.719c0,0,0,0,0,0
				C558.585,264.029,560.662,266.142,560.641,268.727C560.641,268.726,560.641,268.726,560.641,268.727z"/>
			<path fill="#333333" d="M562.641,286.727c0.002,0.676-0.14,1.346-0.416,1.963c-0.728,1.625-4.225,6.318-4.225,6.318
				s-3.484-4.693-4.225-6.318c-0.276-0.617-0.418-1.287-0.416-1.963c-0.022-2.585,2.056-4.697,4.641-4.719c0,0,0,0,0,0
				C560.585,282.029,562.662,284.142,562.641,286.727C562.641,286.726,562.641,286.726,562.641,286.727z"/>
		</g>
		<g id="South_00000115512960080880779590000005447551374161789375_">
			<path fill="#333333" d="M485.641,351.727c0.002,0.676-0.14,1.346-0.416,1.963c-0.728,1.625-4.225,6.318-4.225,6.318
				s-3.484-4.693-4.225-6.318c-0.276-0.617-0.418-1.287-0.416-1.963c-0.022-2.585,2.056-4.697,4.641-4.719c0,0,0,0,0,0
				C483.585,347.029,485.662,349.142,485.641,351.727C485.641,351.726,485.641,351.726,485.641,351.727z"/>
			<path id="repeat2_00000129189312480507347140000010751707560175294337_" fill="#333333" d="M438.641,360.727
				c0.002,0.676-0.14,1.346-0.416,1.963c-0.728,1.625-4.225,6.318-4.225,6.318s-3.484-4.693-4.225-6.318
				c-0.276-0.617-0.418-1.287-0.416-1.963c-0.022-2.585,2.056-4.697,4.641-4.719c0,0,0,0,0,0
				C436.585,356.029,438.662,358.142,438.641,360.727C438.641,360.726,438.641,360.726,438.641,360.727z"/>
			<path fill="#333333" d="M458.641,316.727c0.002,0.676-0.14,1.346-0.416,1.963c-0.728,1.625-4.225,6.318-4.225,6.318
				s-3.484-4.693-4.225-6.318c-0.276-0.617-0.418-1.287-0.416-1.963c-0.022-2.585,2.056-4.697,4.641-4.719c0,0,0,0,0,0
				C456.585,312.029,458.662,314.142,458.641,316.727C458.641,316.726,458.641,316.726,458.641,316.727z"/>
			<path id="repeat1_00000156552944090354160660000011980387350855713214_" fill="#333333" d="M456.641,312.727
				c0.002,0.676-0.14,1.346-0.416,1.963c-0.728,1.625-4.225,6.318-4.225,6.318s-3.484-4.693-4.225-6.318
				c-0.276-0.617-0.418-1.287-0.416-1.963c-0.022-2.585,2.056-4.697,4.641-4.719c0,0,0,0,0,0
				C454.585,308.029,456.662,310.142,456.641,312.727C456.641,312.726,456.641,312.726,456.641,312.727z"/>
			<path fill="#333333" d="M401.641,326.727c0.002,0.676-0.14,1.346-0.416,1.963c-0.728,1.625-4.225,6.318-4.225,6.318
				s-3.484-4.693-4.225-6.318c-0.276-0.617-0.418-1.287-0.416-1.963c-0.022-2.585,2.056-4.697,4.641-4.719c0,0,0,0,0,0
				C399.585,322.029,401.662,324.142,401.641,326.727C401.641,326.726,401.641,326.726,401.641,326.727z"/>
			<path fill="#333333" d="M404.641,304.727c0.002,0.676-0.14,1.346-0.416,1.963c-0.728,1.625-4.225,6.318-4.225,6.318
				s-3.484-4.693-4.225-6.318c-0.276-0.617-0.418-1.287-0.416-1.963c-0.022-2.585,2.056-4.697,4.641-4.719c0,0,0,0,0,0
				C402.585,300.029,404.662,302.142,404.641,304.727C404.641,304.726,404.641,304.726,404.641,304.727z"/>
		</g>
		<g id="Home_00000056419884833938636120000008884132569048708230_">
			<path id="Home_00000179626294638880793670000017383473100607919546_" fill="#09BB9F" d="M387.017,244.62
				c4.293,3.72,7.627,6.58,10,8.58c0.267,0.213,0.4,0.48,0.4,0.8c0,0.28-0.1,0.527-0.3,0.74s-0.44,0.313-0.72,0.3h-2.1v7.28
				c0,0.28-0.1,0.527-0.3,0.74c-0.2,0.213-0.44,0.32-0.72,0.32h-3.12c-0.293,0-0.54-0.107-0.74-0.32
				c-0.2-0.213-0.307-0.46-0.32-0.74v-4.16h-4.18v4.16c0,0.28-0.1,0.527-0.3,0.74c-0.2,0.213-0.44,0.32-0.72,0.32h-3.12
				c-0.28,0-0.527-0.107-0.74-0.32c-0.213-0.213-0.32-0.46-0.32-0.74v-7.28h-2.06c-0.293,0-0.54-0.1-0.74-0.3
				c-0.2-0.2-0.307-0.447-0.32-0.74c-0.013-0.293,0.113-0.56,0.38-0.8L387.017,244.62z"/>
			<g display="none">
				<text transform="matrix(1 0 0 1 399.3223 262.2031)" display="inline" font-family="'ArialMT'" font-size="8px">H</text>
				<text transform="matrix(1 0 0 1 408.0996 262.2031)" display="inline" font-family="'ArialMT'" font-size="8px">o</text>
				<text transform="matrix(1 0 0 1 415.5488 262.2031)" display="inline" font-family="'ArialMT'" font-size="8px">m</text>
				<text transform="matrix(1 0 0 1 425.2129 262.2031)" display="inline" font-family="'ArialMT'" font-size="8px">e</text>
			</g>
			<g display="none">
				
					<text transform="matrix(1 0 0 1 399.3223 262.2031)" display="inline" fill="none" stroke="#F2F3F0" stroke-width="2" stroke-linecap="round" stroke-linejoin="round" font-family="'ArialMT'" font-size="8px">H</text>
				
					<text transform="matrix(1 0 0 1 408.0996 262.2031)" display="inline" fill="none" stroke="#F2F3F0" stroke-width="2" stroke-linecap="round" stroke-linejoin="round" font-family="'ArialMT'" font-size="8px">o</text>
				
					<text transform="matrix(1 0 0 1 415.5488 262.2031)" display="inline" fill="none" stroke="#F2F3F0" stroke-width="2" stroke-linecap="round" stroke-linejoin="round" font-family="'ArialMT'" font-size="8px">m</text>
				
					<text transform="matrix(1 0 0 1 425.2129 262.2031)" display="inline" fill="none" stroke="#F2F3F0" stroke-width="2" stroke-linecap="round" stroke-linejoin="round" font-family="'ArialMT'" font-size="8px">e</text>
			</g>
			<g display="none">
				<text transform="matrix(1 0 0 1 399.3223 262.2031)" display="inline" fill="#1D81A2" font-family="'ArialMT'" font-size="8px">H</text>
				<text transform="matrix(1 0 0 1 408.0996 262.2031)" display="inline" fill="#1D81A2" font-family="'ArialMT'" font-size="8px">o</text>
				<text transform="matrix(1 0 0 1 415.5488 262.2031)" display="inline" fill="#1D81A2" font-family="'ArialMT'" font-size="8px">m</text>
				<text transform="matrix(1 0 0 1 425.2129 262.2031)" display="inline" fill="#1D81A2" font-family="'ArialMT'" font-size="8px">e</text>
			</g>
		</g>
	</g>
</g>
<style>
#g-new-delivery-map-Artboard_1-interactions-img rect, #g-new-delivery-map-Artboard_1-interactions-img circle, #g-new-delivery-map-Artboard_1-interactions-img path, #g-new-delivery-map-Artboard_1-interactions-img line, #g-new-delivery-map-Artboard_1-interactions-img polyline, #g-new-delivery-map-Artboard_1-interactions-img polygon { vector-effect: non-scaling-stroke; }
</style>
</svg>

